<?xml version="1.0" ?><svg viewBox="0 0 32 32" xmlns="http://www.w3.org/2000/svg"><defs><style>.cls-1{fill:#d9e1e8;}.cls-2{fill:#2893ea;}</style></defs><title/><g id="Cloud"><path class="cls-1" d="M24.9,6.17A4.41,4.41,0,0,0,20.5,3a5,5,0,0,0-1.67.29A7.73,7.73,0,0,0,14.5,2,7.4,7.4,0,0,0,7.26,7.18,4.56,4.56,0,0,0,4.83,8.89a4.52,4.52,0,0,0-.72,3.61A4.6,4.6,0,0,0,8.65,16H23.5A5.27,5.27,0,0,0,29,11,5.08,5.08,0,0,0,24.9,6.17Z"/><path class="cls-2" d="M11,21.71l.56.56a.49.49,0,0,0,.35.14.5.5,0,0,0,.36-.14.51.51,0,0,0,0-.71L11.71,21h.79a.5.5,0,0,0,0-1h-.79l.56-.56a.5.5,0,0,0-.71-.71l-.56.56V18.5a.5.5,0,0,0-1,0v.79l-.56-.56a.5.5,0,0,0-.71.71l.56.56H8.5a.5.5,0,0,0,0,1h.79l-.56.56a.51.51,0,0,0,0,.71.5.5,0,0,0,.36.14.49.49,0,0,0,.35-.14l.56-.56v.79a.5.5,0,0,0,1,0Z"/><path class="cls-2" d="M18,21.71l.56.56a.49.49,0,0,0,.35.14.5.5,0,0,0,.36-.14.51.51,0,0,0,0-.71L18.71,21h.79a.5.5,0,0,0,0-1h-.79l.56-.56a.5.5,0,0,0-.71-.71l-.56.56V18.5a.5.5,0,0,0-1,0v.79l-.56-.56a.5.5,0,0,0-.71.71l.56.56H15.5a.5.5,0,0,0,0,1h.79l-.56.56a.51.51,0,0,0,0,.71.5.5,0,0,0,.36.14.49.49,0,0,0,.35-.14l.56-.56v.79a.5.5,0,0,0,1,0Z"/><path class="cls-2" d="M26.5,20h-.79l.56-.56a.5.5,0,0,0-.71-.71l-.56.56V18.5a.5.5,0,0,0-1,0v.79l-.56-.56a.5.5,0,0,0-.71.71l.56.56H22.5a.5.5,0,0,0,0,1h.79l-.56.56a.51.51,0,0,0,0,.71.5.5,0,0,0,.36.14.49.49,0,0,0,.35-.14l.56-.56v.79a.5.5,0,0,0,1,0v-.79l.56.56a.49.49,0,0,0,.35.14.5.5,0,0,0,.36-.14.51.51,0,0,0,0-.71L25.71,21h.79a.5.5,0,0,0,0-1Z"/><path class="cls-2" d="M8.5,26H7.71l.56-.56a.5.5,0,0,0-.71-.71L7,25.29V24.5a.5.5,0,0,0-1,0v.79l-.56-.56a.5.5,0,0,0-.71.71l.56.56H4.5a.5.5,0,0,0,0,1h.79l-.56.56a.51.51,0,0,0,0,.71.5.5,0,0,0,.36.14.49.49,0,0,0,.35-.14L6,27.71v.79a.5.5,0,0,0,1,0v-.79l.56.56a.49.49,0,0,0,.35.14.5.5,0,0,0,.36-.14.51.51,0,0,0,0-.71L7.71,27H8.5a.5.5,0,0,0,0-1Z"/><path class="cls-2" d="M15.5,26h-.79l.56-.56a.5.5,0,0,0-.71-.71l-.56.56V24.5a.5.5,0,0,0-1,0v.79l-.56-.56a.5.5,0,0,0-.71.71l.56.56H11.5a.5.5,0,0,0,0,1h.79l-.56.56a.51.51,0,0,0,0,.71.5.5,0,0,0,.36.14.49.49,0,0,0,.35-.14l.56-.56v.79a.5.5,0,0,0,1,0v-.79l.56.56a.49.49,0,0,0,.35.14.5.5,0,0,0,.36-.14.51.51,0,0,0,0-.71L14.71,27h.79a.5.5,0,0,0,0-1Z"/><path class="cls-2" d="M22.5,26h-.79l.56-.56a.5.5,0,0,0-.71-.71l-.56.56V24.5a.5.5,0,0,0-1,0v.79l-.56-.56a.5.5,0,0,0-.71.71l.56.56H18.5a.5.5,0,0,0,0,1h.79l-.56.56a.51.51,0,0,0,0,.71.5.5,0,0,0,.36.14.49.49,0,0,0,.35-.14l.56-.56v.79a.5.5,0,0,0,1,0v-.79l.56.56a.49.49,0,0,0,.35.14.5.5,0,0,0,.36-.14.51.51,0,0,0,0-.71L21.71,27h.79a.5.5,0,0,0,0-1Z"/></g></svg>